<svg xmlns="http://www.w3.org/2000/svg" width="800" height="256" viewBox="0 0 800 256" role="img" aria-label="Hey, I'm Jun Kai — software developer in San Francisco and Singapore. I build things that need to be fast and correct: a Rust options-pricing engine, encrypted developer tools, and applied ML.">
  <defs>
    <linearGradient id="brand" x1="0" y1="0" x2="1" y2="0">
      <stop stop-color="#EE696B"/><stop offset="1" stop-color="#523A78"/>
    </linearGradient>
    <linearGradient id="rose-grad" x1="134.376" y1="134.379" x2="377.621" y2="377.623" gradientUnits="userSpaceOnUse">
      <stop stop-color="#EE696B"/><stop offset="1" stop-color="#523A78"/>
    </linearGradient>
    <clipPath id="rose-clip"><rect width="344" height="344" fill="white" transform="translate(12.7552 256) rotate(-45)"/></clipPath>
  </defs>

  <rect x="0.75" y="0.75" width="798.5" height="254.5" rx="14" fill="#0A0A0A" stroke="#262229" stroke-width="1.5"/>

  <g transform="translate(48,26) scale(0.084)">
    <g clip-path="url(#rose-clip)"><path d="M358.623 153.037C356.759 148.243 354.925 143.453 353.255 139.092C343.699 114.135 343.515 114.023 341.262 112.653C310.957 94.2228 274.429 107.881 265.57 111.682C254.376 107.157 239.255 104.506 220.907 109.432C190.617 117.565 166.626 108.421 166.399 108.333C164.643 107.637 162.654 107.878 161.115 108.973C160.618 109.328 148.822 117.803 139.125 131.909C130.671 144.209 126.442 156.985 126.507 169.662C114.274 170.971 103.069 178.166 95.8095 183.991C88.6041 189.773 82.5283 196.458 81.5112 198.519C80.6627 200.241 80.7405 202.35 81.7497 203.983C84.8015 208.924 86.3576 216.364 87.8628 223.56C90.2406 234.936 92.6983 246.673 101.309 253.262C93.7647 277.669 92.7508 310.52 92.6378 315.475C92.6173 316.367 92.8112 317.25 93.2031 318.051C93.4563 318.57 99.5401 330.915 110.211 344.787C124.797 363.748 140.305 375.869 156.302 380.812C156.778 380.96 157.255 381.082 157.732 381.216C161.926 395.517 172.311 401.996 181.48 407.713C188.623 412.166 194.791 416.011 197.921 422.93C198.638 424.511 200.076 425.68 201.766 426.072C205.441 426.923 236.96 421.672 258.324 404.33C259.958 405.316 261.698 406.223 263.573 407.008C278.708 413.335 297.942 411.216 320.74 400.708C332.406 395.331 341.411 392.294 349.355 389.614C359.191 386.295 367.686 383.431 376.59 377.439C379.073 375.768 381.391 373.853 383.535 371.709C393.638 361.605 399.875 346.443 401.334 328.038C401.626 324.351 402.811 319.842 404.066 315.07C408.376 298.675 414.236 276.311 392.347 256.032C393.16 253.221 393.865 250.372 394.414 247.456C394.929 247.464 395.451 247.405 395.973 247.262C398.444 246.586 400.411 245.423 401.969 243.865C408.925 236.908 407.701 222.08 406.51 207.657C405.617 196.843 404.605 184.586 407.351 178.185C408.054 176.544 408.755 173.197 405.534 169.232C398.949 161.118 375.624 151.074 358.623 153.037ZM334.315 121.493C335.792 124.651 339.52 134.385 342.847 143.077C347.807 156.03 352.201 167.396 355.811 175.939C354.032 175.025 352.231 174.116 350.419 173.202C341.56 168.731 332.399 164.109 324.688 158.156C317.419 152.543 310.11 148.758 302.823 146.792C298.07 136.166 289.308 126.001 278.731 118.762C291.758 114.731 314.868 110.381 334.315 121.493ZM377.051 266.564C372.818 278.307 368.021 291.617 366.899 308.888C365.451 331.165 346.857 342.61 329.061 344.382C329.785 339.823 329.95 335.016 329.534 330.015C337.612 319.614 343.769 306.83 347.341 292.552C353.839 266.588 350.887 238.88 339.243 216.533C324.221 187.704 292.846 171.034 265.917 167.343C270.149 163.311 277.202 158.098 286.397 156.703C296.476 155.173 307.067 158.63 317.878 166.977C326.43 173.58 336.073 178.446 345.4 183.151C359.854 190.445 373.509 197.334 378.57 209.034C389.052 233.264 383.755 247.959 377.051 266.564ZM229.172 369.516C218.523 365.583 209.544 364.956 201.622 364.403C190.715 363.641 182.1 363.04 171.148 354.693C145.781 335.361 138.266 299.73 144.072 276.022C145.671 269.495 148.186 264.353 151.236 261.083C152.231 279.242 158.503 304.614 174.349 319.832C183.893 328.998 195.337 332.969 208.363 331.637C211.799 331.285 215.114 330.685 218.297 329.851C223.007 339.054 234.306 348.283 247.781 353.622C259.134 358.121 281.858 363.645 306.483 350.09C310.601 347.823 314.508 345.092 318.178 341.963C316.789 351.846 312.149 360.057 304.442 366.091C287.726 379.18 258.884 380.492 229.172 369.516ZM123.666 222.484C125.207 211.338 131.72 191.62 158.017 184.805C177.054 179.872 191.35 170.93 202.836 163.744C218.649 153.852 227.389 148.932 237.853 154.134C244.83 157.603 244.821 164.483 244.477 167.354C230.472 169.611 220.014 176.571 215.104 187.088C207.473 187.4 199.819 189.202 192.389 192.528C170.16 202.477 154.493 223.757 151.594 247.462C144.618 250.286 138.953 256.94 135.343 266.545C126.018 256.586 121.669 236.923 123.666 222.484ZM301.109 340.328C280.486 351.68 261.418 347.039 251.886 343.262C240.532 338.763 232.347 331.708 228.873 325.965C231.22 324.831 233.467 323.544 235.607 322.105C250.043 328.255 268.954 325.903 283.582 315.914C286.433 313.967 289.053 311.793 291.433 309.413C303.954 296.892 309.826 278.683 307.71 258C305.261 234.061 297.084 205.986 255.548 200.354C246.846 193.786 237.35 189.611 227.588 187.912C233.939 179.806 245.464 178.028 252.402 177.746C278.426 176.69 314.326 192.835 329.359 221.683C339.76 241.646 342.374 266.49 336.529 289.846C330.815 312.684 317.903 331.083 301.109 340.328ZM162.346 252.079C163.63 231.23 177.535 211.387 196.942 202.7C204.706 199.225 218.225 195.432 233.686 200.926C223.209 202.991 213.338 207.613 205.124 214.495C194.302 223.565 187.703 235.685 187.018 247.76C185.773 269.679 194.234 286.629 210.23 294.263C221.561 299.67 235.25 299.357 245.227 293.966C240.159 304.788 229.446 318.278 207.23 320.551C197.61 321.536 189.144 318.59 182.07 311.795C171.358 301.507 160.805 277.083 162.346 252.079ZM246.522 280.36C242.266 280.796 238.095 279.547 234.778 276.845C231.461 274.144 229.394 270.311 228.958 266.055C228.523 261.799 229.771 257.628 232.472 254.311C232.824 253.878 233.196 253.467 233.586 253.077C236.181 250.483 239.561 248.871 243.262 248.492C252.049 247.593 259.928 254.01 260.827 262.797C261.262 267.053 260.014 271.224 257.313 274.541C254.613 277.857 250.778 279.924 246.522 280.36ZM264.066 283.67C264.726 283.01 265.357 282.312 265.954 281.578C270.536 275.952 272.652 268.879 271.914 261.661C270.389 246.762 257.028 235.88 242.128 237.404C234.911 238.142 228.411 241.647 223.831 247.273C219.249 252.899 217.133 259.972 217.871 267.19C218.609 274.408 222.114 280.906 227.74 285.488C228.392 286.019 229.066 286.513 229.756 286.978C224.857 287.302 219.643 286.406 215.03 284.204C203.152 278.535 197.155 265.817 198.144 248.39C198.656 239.376 203.807 230.137 212.28 223.037C223.339 213.773 238.067 209.465 252.688 211.22C285.487 215.152 293.972 233.219 296.624 259.133C299.484 287.092 285.745 300.941 277.298 306.71C267.549 313.368 255.567 315.812 245.448 313.597C246.619 312.309 247.742 310.965 248.805 309.551C252.181 305.063 256.739 297.589 259.398 287.401C261.075 286.341 262.641 285.095 264.066 283.67ZM148.135 138.479C154.376 129.321 161.794 122.7 165.396 119.756C173.433 122.245 196.084 127.637 223.797 120.195C244.292 114.693 259.925 120.322 269.43 126.015C278.468 131.428 285.092 138.672 289.31 145.247C287.778 145.313 286.249 145.453 284.724 145.684C270.407 147.856 260.31 156.825 255.487 162.085C254.65 155.702 251.372 148.41 242.814 144.155C226.279 135.935 212.676 144.444 196.926 154.297C185.523 161.43 172.598 169.515 155.222 174.018C148.963 175.639 143.616 177.861 139.036 180.484C135.524 166.619 138.566 152.519 148.135 138.479ZM98.7725 221.279C97.3624 214.537 95.9129 207.605 93.1375 201.671C98.3906 195.914 112.895 182.335 127.671 180.744C128.133 182.988 128.729 185.224 129.468 187.447C117.791 198.179 113.888 211.856 112.628 220.957C112.119 224.637 111.929 228.389 112.028 232.133C109.624 234.725 107.517 238.06 105.67 241.902C102.1 237.147 100.47 229.398 98.7725 221.279ZM103.824 314.338C103.978 310.072 104.599 296.574 106.67 281.886C108.894 266.112 111.771 255.923 114.512 249.34C117.795 261.758 124.098 272.606 132.182 278.558C127.543 305.973 136.726 342.473 164.392 363.558C169.433 367.4 174.2 369.927 178.777 371.629C172.441 372.648 166.09 372.167 159.62 370.172C129.486 360.878 107.684 321.684 103.824 314.338ZM187.379 398.255C180.416 393.914 174.224 390.05 170.541 383.25C180.596 383.595 190.587 381.004 200.385 375.488C200.538 375.499 200.692 375.51 200.845 375.521C208.373 376.047 216.158 376.589 225.311 379.971C230.898 382.035 236.503 383.704 242.057 384.987C242.097 385.133 242.139 385.279 242.191 385.423C243.497 389.037 245.908 393.216 249.475 397.107C234.185 408.633 214.074 413.391 206.146 414.693C201.434 407.019 194.304 402.573 187.379 398.255ZM393.291 312.235C391.906 317.502 390.598 322.478 390.227 327.156C388.732 346.009 381.683 360.582 370.371 368.192C362.709 373.348 355.245 375.866 345.796 379.054C337.587 381.822 328.283 384.961 316.078 390.586C296.509 399.606 279.841 401.729 267.874 396.725C261.957 394.251 258.176 390.538 255.851 387.378C261.866 388.057 267.746 388.239 273.395 387.903C288.45 387.01 301.561 382.503 311.313 374.868C312.891 373.632 314.371 372.321 315.753 370.939C320.147 366.545 323.546 361.427 325.895 355.738C325.995 355.74 326.094 355.746 326.195 355.743C338.141 355.338 350.216 351.205 359.321 344.403C361.252 342.96 363.04 341.415 364.685 339.77C372.67 331.785 377.249 321.484 378.02 309.611C379.041 293.913 383.359 281.931 387.535 270.343C387.827 269.533 388.117 268.726 388.406 267.919C401.101 282.516 397.137 297.601 393.291 312.235ZM395.406 208.572C396.043 216.29 396.918 226.868 395.595 232.564C395.298 224.259 393.35 215.134 388.797 204.611C385.369 196.684 379.623 190.781 372.635 185.794C372.509 185.113 372.266 184.444 371.872 183.823C369.885 180.693 366.545 172.938 362.911 163.904C376 163.741 392.527 171.748 396.396 175.667C393.42 184.518 394.428 196.733 395.406 208.572Z" fill="url(#rose-grad)"/></g>
  </g>

  <text x="48" y="120" font-family="'Geist', ui-sans-serif, system-ui, -apple-system, 'Segoe UI', Roboto, 'Helvetica Neue', Arial, sans-serif" font-size="38" font-weight="700" letter-spacing="-0.6" fill="#EDEDED">Hey, I'm Jun Kai</text>
  <rect x="48" y="132" width="58" height="3" rx="1.5" fill="url(#brand)"/>

  <g transform="translate(48,150)">
    <path fill-rule="evenodd" d="M6,1 C2.9,1 0.4,3.5 0.4,6.6 C0.4,10.8 6,16.5 6,16.5 C6,16.5 11.6,10.8 11.6,6.6 C11.6,3.5 9.1,1 6,1 Z M3.8,6.6 A2.2,2.2 0 1 0 8.2,6.6 A2.2,2.2 0 1 0 3.8,6.6 Z" fill="#EE696B"/>
    <text x="22" y="13" font-family="'Geist Mono', ui-monospace, 'SF Mono', Menlo, Consolas, monospace" font-size="13" letter-spacing="0.2" fill="#9A9AA0">San Francisco &amp; Singapore</text>
  </g>

  <text x="48" y="199" font-family="'Geist', ui-sans-serif, system-ui, -apple-system, 'Segoe UI', Roboto, 'Helvetica Neue', Arial, sans-serif" font-size="18" fill="#C9C9CE">I build things that need to be <tspan fill="#EE696B" font-weight="600">fast and correct</tspan> &#8212; a Rust</text>
  <text x="48" y="225" font-family="'Geist', ui-sans-serif, system-ui, -apple-system, 'Segoe UI', Roboto, 'Helvetica Neue', Arial, sans-serif" font-size="18" fill="#C9C9CE">options-pricing engine, encrypted dev tools, and applied ML.</text>
</svg>
