<svg xmlns="http://www.w3.org/2000/svg" width="800" height="196" viewBox="0 0 800 196" role="img" aria-label="Languages by commit over the last year: Rust 52%, TypeScript 25%, Python 21%, other 2%. 625 commits and 88 pull requests this year.">
  <rect x="0.75" y="0.75" width="798.5" height="194.5" rx="12" fill="#14161A" stroke="#262A31" stroke-width="1.5"/>
  <text x="40" y="40" font-family="ui-monospace, 'SF Mono', Menlo, Consolas, monospace" font-size="12" letter-spacing="3.2" fill="#7C818B">LANGUAGES &#183; BY COMMIT</text>
  <g transform="translate(140,116)">
    <path d="M0.0,-54.0A54,54,0,1,1,-6.768,53.574L-4.261,33.732A34,34,0,1,0,0.0,-34.0Z" fill="#E3B341"/>
    <path d="M-6.768,53.574A54,54,0,0,1,-53.574,-6.768L-33.732,-4.261A34,34,0,0,0,-4.261,33.732Z" fill="#56B6C2"/>
    <path d="M-53.574,-6.768A54,54,0,0,1,-6.768,-53.574L-4.261,-33.732A34,34,0,0,0,-33.732,-4.261Z" fill="#C98FE8"/>
    <path d="M-6.768,-53.574A54,54,0,0,1,-0.0,-54.0L-0.0,-34.0A34,34,0,0,0,-4.261,-33.732Z" fill="#6E727B"/>
    <text x="0" y="-1" text-anchor="middle" font-family="'Iowan Old Style', Palatino, Georgia, serif" font-size="22" fill="#E3B341">52%</text>
    <text x="0" y="16" text-anchor="middle" font-family="ui-monospace, 'SF Mono', Menlo, Consolas, monospace" font-size="9.5" letter-spacing="2.5" fill="#7C818B">RUST</text>
  </g>
  <g font-family="ui-monospace, 'SF Mono', Menlo, Consolas, monospace" font-size="12.5">
    <rect x="250" y="76" width="11" height="11" rx="2.5" fill="#E3B341"/><text x="270" y="86" fill="#B9BDC5">Rust</text><text x="470" y="86" text-anchor="end" fill="#7C818B">52%</text>
    <rect x="250" y="104" width="11" height="11" rx="2.5" fill="#56B6C2"/><text x="270" y="114" fill="#B9BDC5">TypeScript</text><text x="470" y="114" text-anchor="end" fill="#7C818B">25%</text>
    <rect x="250" y="132" width="11" height="11" rx="2.5" fill="#C98FE8"/><text x="270" y="142" fill="#B9BDC5">Python</text><text x="470" y="142" text-anchor="end" fill="#7C818B">21%</text>
    <rect x="250" y="160" width="11" height="11" rx="2.5" fill="#6E727B"/><text x="270" y="170" fill="#B9BDC5">Other</text><text x="470" y="170" text-anchor="end" fill="#7C818B">2%</text>
  </g>
  <line x1="536" y1="60" x2="536" y2="164" stroke="#20242B" stroke-width="1"/>
  <g font-family="ui-monospace, 'SF Mono', Menlo, Consolas, monospace" font-size="12.5" fill="#7C818B">
    <text x="580" y="86"><tspan fill="#B9BDC5">625</tspan> commits this year</text>
    <text x="580" y="114"><tspan fill="#B9BDC5">88</tspan> pull requests</text>
    <text x="580" y="142"><tspan fill="#B9BDC5">4,440</tspan> contributions</text>
    <text x="580" y="170" fill="#6E727B">in the last year</text>
  </g>
</svg>
