<svg xmlns="http://www.w3.org/2000/svg" width="800" height="390" viewBox="0 0 800 390" role="img" aria-label="Selected work: pyvolr, secrets-spotter, PINN-DER, farwatch, lux. Languages by commit over the last year: Rust 42 percent, TypeScript 29 percent, Python 23 percent, Other 6 percent.">
  <rect x="0.75" y="0.75" width="798.5" height="388.5" rx="14" fill="#0A0A0A" stroke="#262229" stroke-width="1.5"/>
  <text x="48" y="54" font-family="'Geist Mono', ui-monospace, 'SF Mono', Menlo, Consolas, monospace" font-size="12" letter-spacing="3.2" fill="#8A8A90">SELECTED WORK</text>
  <text x="48" y="101" font-family="'Geist', ui-sans-serif, system-ui, -apple-system, 'Segoe UI', Roboto, sans-serif" font-weight="600" font-size="18" fill="#EDEDED">pyvolr</text>
  <text x="48" y="120" font-family="'Geist', ui-sans-serif, system-ui, -apple-system, 'Segoe UI', Roboto, sans-serif" font-size="12.5" fill="#8A8A90">Black-Scholes pricing, Greeks &amp; implied vol &#183; Rust core</text>
  <line x1="48" y1="135" x2="440" y2="135" stroke="#221E26" stroke-width="1"/>
  <text x="48" y="161" font-family="'Geist', ui-sans-serif, system-ui, -apple-system, 'Segoe UI', Roboto, sans-serif" font-weight="600" font-size="18" fill="#EDEDED">secrets-spotter</text>
  <text x="48" y="180" font-family="'Geist', ui-sans-serif, system-ui, -apple-system, 'Segoe UI', Roboto, sans-serif" font-size="12.5" fill="#8A8A90">Real-time secret detection &#183; Rust / WASM</text>
  <line x1="48" y1="195" x2="440" y2="195" stroke="#221E26" stroke-width="1"/>
  <text x="48" y="221" font-family="'Geist', ui-sans-serif, system-ui, -apple-system, 'Segoe UI', Roboto, sans-serif" font-weight="600" font-size="18" fill="#EDEDED">PINN-DER</text>
  <text x="48" y="240" font-family="'Geist', ui-sans-serif, system-ui, -apple-system, 'Segoe UI', Roboto, sans-serif" font-size="12.5" fill="#8A8A90">Physics-informed nets with calibrated uncertainty</text>
  <line x1="48" y1="255" x2="440" y2="255" stroke="#221E26" stroke-width="1"/>
  <text x="48" y="281" font-family="'Geist', ui-sans-serif, system-ui, -apple-system, 'Segoe UI', Roboto, sans-serif" font-weight="600" font-size="18" fill="#EDEDED">farwatch</text>
  <text x="48" y="300" font-family="'Geist', ui-sans-serif, system-ui, -apple-system, 'Segoe UI', Roboto, sans-serif" font-size="12.5" fill="#8A8A90">Encrypted terminal mirroring for AI agents &#183; Rust + Flutter</text>
  <line x1="48" y1="315" x2="440" y2="315" stroke="#221E26" stroke-width="1"/>
  <text x="48" y="341" font-family="'Geist', ui-sans-serif, system-ui, -apple-system, 'Segoe UI', Roboto, sans-serif" font-weight="600" font-size="18" fill="#EDEDED">lux</text>
  <text x="48" y="360" font-family="'Geist', ui-sans-serif, system-ui, -apple-system, 'Segoe UI', Roboto, sans-serif" font-size="12.5" fill="#8A8A90">Menu-bar brightness for every macOS display &#183; native Swift</text>
  <line x1="470" y1="40" x2="470" y2="350" stroke="#221E26" stroke-width="1"/>
  <text x="502" y="54" font-family="'Geist Mono', ui-monospace, 'SF Mono', Menlo, Consolas, monospace" font-size="12" letter-spacing="3.2" fill="#8A8A90">LANGUAGES &#183; BY COMMIT</text>
  <g>
    <path d="M566.0,163.0A58,58,0,0,1,593.942,271.826L583.825,253.423A37,37,0,0,0,566.0,184.0Z" fill="#EE696B"/>
    <path d="M593.942,271.826A58,58,0,0,1,509.822,235.424L530.162,230.202A37,37,0,0,0,583.825,253.423Z" fill="#C56A9A"/>
    <path d="M509.822,235.424A58,58,0,0,1,544.649,167.073L552.379,186.598A37,37,0,0,0,530.162,230.202Z" fill="#8A5FA8"/>
    <path d="M544.649,167.073A58,58,0,0,1,566.0,163.0L566.0,184.0A37,37,0,0,0,552.379,186.598Z" fill="#4E4A55"/>
    <text x="566" y="220" text-anchor="middle" font-family="'Geist', ui-sans-serif, system-ui, -apple-system, 'Segoe UI', Roboto, sans-serif" font-weight="700" font-size="23" fill="#EE696B">42%</text>
    <text x="566" y="238" text-anchor="middle" font-family="'Geist Mono', ui-monospace, 'SF Mono', Menlo, Consolas, monospace" font-size="9.5" letter-spacing="2.5" fill="#8A8A90">RUST</text>
  </g>
  <g font-family="'Geist Mono', ui-monospace, 'SF Mono', Menlo, Consolas, monospace" font-size="12.5">
    <rect x="648" y="175" width="11" height="11" rx="2.5" fill="#EE696B"/><text x="668" y="185" fill="#C9C9CE">Rust</text><text x="772" y="185" text-anchor="end" fill="#7C7C82">42%</text>
    <rect x="648" y="201" width="11" height="11" rx="2.5" fill="#C56A9A"/><text x="668" y="211" fill="#C9C9CE">TypeScript</text><text x="772" y="211" text-anchor="end" fill="#7C7C82">29%</text>
    <rect x="648" y="227" width="11" height="11" rx="2.5" fill="#8A5FA8"/><text x="668" y="237" fill="#C9C9CE">Python</text><text x="772" y="237" text-anchor="end" fill="#7C7C82">23%</text>
    <rect x="648" y="253" width="11" height="11" rx="2.5" fill="#4E4A55"/><text x="668" y="263" fill="#C9C9CE">Other</text><text x="772" y="263" text-anchor="end" fill="#7C7C82">6%</text>
  </g>
</svg>
