<svg xmlns="http://www.w3.org/2000/svg" width="800" height="330" viewBox="0 0 800 330" role="img" aria-label="Selected work: pyvolr, secrets-spotter, PINN-DER. Languages by commit over the last year: Rust 42 percent, TypeScript 29 percent, Python 23 percent, Other 6 percent.">
  <rect x="0.75" y="0.75" width="798.5" height="328.5" rx="14" fill="#0A0A0A" stroke="#262229" stroke-width="1.5"/>
  <text x="48" y="54" font-family="'Geist Mono', ui-monospace, 'SF Mono', Menlo, Consolas, monospace" font-size="12" letter-spacing="3.2" fill="#8A8A90">SELECTED WORK</text>
  <text x="48" y="116" font-family="'Geist', ui-sans-serif, system-ui, -apple-system, 'Segoe UI', Roboto, sans-serif" font-weight="600" font-size="18" fill="#EDEDED">pyvolr</text>
  <text x="48" y="135" font-family="'Geist', ui-sans-serif, system-ui, -apple-system, 'Segoe UI', Roboto, sans-serif" font-size="12.5" fill="#8A8A90">Black-Scholes pricing, Greeks &amp; implied vol &#183; Rust core</text>
  <line x1="48" y1="150" x2="440" y2="150" stroke="#221E26" stroke-width="1"/>
  <text x="48" y="190" font-family="'Geist', ui-sans-serif, system-ui, -apple-system, 'Segoe UI', Roboto, sans-serif" font-weight="600" font-size="18" fill="#EDEDED">secrets-spotter</text>
  <text x="48" y="209" font-family="'Geist', ui-sans-serif, system-ui, -apple-system, 'Segoe UI', Roboto, sans-serif" font-size="12.5" fill="#8A8A90">Real-time secret detection &#183; Rust / WASM</text>
  <line x1="48" y1="224" x2="440" y2="224" stroke="#221E26" stroke-width="1"/>
  <text x="48" y="264" font-family="'Geist', ui-sans-serif, system-ui, -apple-system, 'Segoe UI', Roboto, sans-serif" font-weight="600" font-size="18" fill="#EDEDED">PINN-DER</text>
  <text x="48" y="283" font-family="'Geist', ui-sans-serif, system-ui, -apple-system, 'Segoe UI', Roboto, sans-serif" font-size="12.5" fill="#8A8A90">Physics-informed nets with calibrated uncertainty</text>
  <line x1="470" y1="40" x2="470" y2="290" stroke="#221E26" stroke-width="1"/>
  <text x="502" y="54" font-family="'Geist Mono', ui-monospace, 'SF Mono', Menlo, Consolas, monospace" font-size="12" letter-spacing="3.2" fill="#8A8A90">LANGUAGES &#183; BY COMMIT</text>
  <g>
    <path d="M566.0,132.0A58,58,0,0,1,593.942,240.826L583.825,222.423A37,37,0,0,0,566.0,153.0Z" fill="#EE696B"/>
    <path d="M593.942,240.826A58,58,0,0,1,509.822,204.424L530.162,199.202A37,37,0,0,0,583.825,222.423Z" fill="#C56A9A"/>
    <path d="M509.822,204.424A58,58,0,0,1,544.649,136.073L552.379,155.598A37,37,0,0,0,530.162,199.202Z" fill="#8A5FA8"/>
    <path d="M544.649,136.073A58,58,0,0,1,566.0,132.0L566.0,153.0A37,37,0,0,0,552.379,155.598Z" fill="#4E4A55"/>
    <text x="566" y="189" text-anchor="middle" font-family="'Geist', ui-sans-serif, system-ui, -apple-system, 'Segoe UI', Roboto, sans-serif" font-weight="700" font-size="23" fill="#EE696B">42%</text>
    <text x="566" y="207" text-anchor="middle" font-family="'Geist Mono', ui-monospace, 'SF Mono', Menlo, Consolas, monospace" font-size="9.5" letter-spacing="2.5" fill="#8A8A90">RUST</text>
  </g>
  <g font-family="'Geist Mono', ui-monospace, 'SF Mono', Menlo, Consolas, monospace" font-size="12.5">
    <rect x="648" y="144" width="11" height="11" rx="2.5" fill="#EE696B"/><text x="668" y="154" fill="#C9C9CE">Rust</text><text x="772" y="154" text-anchor="end" fill="#7C7C82">42%</text>
    <rect x="648" y="170" width="11" height="11" rx="2.5" fill="#C56A9A"/><text x="668" y="180" fill="#C9C9CE">TypeScript</text><text x="772" y="180" text-anchor="end" fill="#7C7C82">29%</text>
    <rect x="648" y="196" width="11" height="11" rx="2.5" fill="#8A5FA8"/><text x="668" y="206" fill="#C9C9CE">Python</text><text x="772" y="206" text-anchor="end" fill="#7C7C82">23%</text>
    <rect x="648" y="222" width="11" height="11" rx="2.5" fill="#4E4A55"/><text x="668" y="232" fill="#C9C9CE">Other</text><text x="772" y="232" text-anchor="end" fill="#7C7C82">6%</text>
  </g>
</svg>
